<svg xmlns="http://www.w3.org/2000/svg" width="235.996" height="40.738" viewBox="0 0 235.996 40.738">
  <defs>
    <style>
      .cls-1 {
        fill: #61c78d;
      }

      .cls-2 {
        fill: #55ced1;
      }

      .cls-3 {
        fill: #68c46b;
      }

      .cls-4 {
        fill: #51d0e5;
      }

      .cls-5 {
        fill: #5bcaaf;
      }

      .cls-6 {
        fill: #74bd28;
      }

      .cls-7 {
        fill: #6ec04a;
      }
    </style>
  </defs>
  <g id="Group_108" data-name="Group 108" transform="translate(-937.881 -386.76)">
    <path id="Path_303" data-name="Path 303" class="cls-1" d="M1192.143,388.262c4.828.224,9.557-.178,14.3.236a23.713,23.713,0,0,1,7.1,1.379c2.88,1.191,5.21,3.057,6,6.274a7.242,7.242,0,0,1-2.687,7.784c-.729.61-1.573,1.08-2.535,1.73,1.319.525,2.563.931,3.727,1.5a10.886,10.886,0,0,1,5.331,4.988c1.63,3.355.25,8.016-2.664,10.305a20.2,20.2,0,0,1-11.559,4.073c-5.419.389-10.832.074-16.246.207-.206.005-.413-.034-.766-.067Zm5.769,33.74a2.478,2.478,0,0,0,.582.152c3.5-.13,6.994.092,10.5-.169a13.406,13.406,0,0,0,6.407-2.108c1.973-1.263,3.638-4.912,1.283-7.418-2.113-2.249-4.765-2.937-7.51-3.5a38.954,38.954,0,0,0-7.959-.28,14.078,14.078,0,0,0-3.307.123Zm-.023-17.972c.4.023.692.045.979.054a50.466,50.466,0,0,0,8.461-.516,8.033,8.033,0,0,0,5.276-2.783c2.225-2.717.941-5.957-2.672-7.143-3.8-1.246-7.715-.912-11.606-.945-.138,0-.278.167-.439.269Z" transform="translate(-140.544 -0.83)"/>
    <path id="Path_304" data-name="Path 304" class="cls-2" d="M1339.148,407.2c.462,11.193-9.206,21.075-21.3,20.46a20,20,0,0,1-19.328-19.526c-.2-12.14,8.862-21.558,21.527-21.005C1330.132,387.573,1339.4,395.992,1339.148,407.2Zm-36.156.238c-.482,8.617,7.014,16.673,16.863,16.107a16,16,0,0,0,14.994-15.019A16.223,16.223,0,0,0,1319.79,391.2C1310.714,390.62,1302.528,398.39,1302.992,407.442Z" transform="translate(-199.346 -0.193)"/>
    <path id="Path_305" data-name="Path 305" class="cls-3" d="M1148,426.9H1120.6V388.444h7.259v32.848H1148Z" transform="translate(-101.001 -0.931)"/>
    <path id="Path_306" data-name="Path 306" class="cls-4" d="M1404.38,407.338c-4.388-6.064-8.841-12.731-13.257-18.834h4.757c3.907,4.637,7.274,10.065,11.239,15.073,3.55-4.886,7.469-10.264,10.963-15.073h5.31c-4.391,6.032-9.155,12.577-13.661,18.767l14.117,19.555h-5.336l-11.5-15.789-11.485,15.818h-5.415Z" transform="translate(-249.971 -0.964)"/>
    <path id="Path_307" data-name="Path 307" class="cls-5" d="M1279.893,427.042l-4.542.024V388.5h4.542Z" transform="translate(-186.538 -0.964)"/>
    <path id="Path_308" data-name="Path 308" class="cls-6" d="M973.564,395l-7.877,4.049a21.241,21.241,0,0,0-4.837-3.728,9.278,9.278,0,0,0-8.584.13c-1.117.695-1.138,1.682-.237,2.737,1.613,1.889,3.922,2.665,6.006,3.782,3.452,1.85,7.07,3.421,10.155,5.883,2.642,2.109,4.808,4.535,4.848,8.227.036,3.31-1.658,5.632-4.125,7.547-4.341,3.369-9.407,4.164-14.663,3.779a19.9,19.9,0,0,1-14.889-8c-.481-.625-1.031-1.2-1.458-1.873-.038-.06-.005-.166-.005-.389l7.818-3.148a6.588,6.588,0,0,1,1.542,1.695c3.842,5.057,11,5.692,15.163,2.42a3.015,3.015,0,0,0,.928-1.261,1.809,1.809,0,0,0-.046-1.52c-.738-1.461-2.173-2.266-3.48-3.149-3.053-2.065-6.436-3.551-9.643-5.348-2.766-1.55-5.493-3.092-7.1-6.05a8.185,8.185,0,0,1,2.141-10.268,16.937,16.937,0,0,1,11.246-3.749,20.025,20.025,0,0,1,13.706,5.049C971.269,392.778,972.317,393.784,973.564,395Z" transform="translate(0 0)"/>
    <path id="Path_309" data-name="Path 309" class="cls-7" d="M1061.9,407.507c.4,10.36-8.636,20.643-21.153,20.04a19.931,19.931,0,0,1-19.01-20.064c.158-11.84,9.072-20.188,20.1-20.135C1053.244,387.4,1062.052,396.057,1061.9,407.507Zm-20.22,13.16a13.216,13.216,0,0,0,.307-26.429c-7.477-.1-13.263,5.323-13.343,13.475A12.879,12.879,0,0,0,1041.677,420.667Z" transform="translate(-46.349 -0.324)"/>
  </g>
</svg>
